<svg xmlns="http://www.w3.org/2000/svg" width="224.198" height="181.688" viewBox="0 0 224.198 181.688">
  <g id="_01010101" data-name="01010101" transform="translate(-49.8 -71.794)">
    <g id="Group_111" data-name="Group 111" transform="translate(118.29 71.794)">
      <g id="Group_110" data-name="Group 110">
        <path id="Path_6429" data-name="Path 6429" d="M286.066,134.659a69.1,69.1,0,0,0-20.1-30.246l2.91-3.519,1.218,1.015c1.15.947,2.165,1.083,2.977.135l2.1-2.5c.812-.947.541-2.03-.609-2.977l-11.1-9.135c-1.15-.947-2.03-.812-2.842.135l-2.1,2.5c-.812.947-.677,1.759.474,2.707l1.421,1.15-3.18,3.789,1.218,1.015a69.565,69.565,0,0,0-32.75-11.3l-.135-6.361L227.738,81c1.962-.068,3.113-.812,3.045-2.436l-.068-4.331c-.068-1.692-1.218-2.5-3.18-2.436l-19.149.406c-1.962.068-2.774.947-2.774,2.571l.068,4.331c.068,1.692.88,2.368,2.842,2.3l2.5-.068.135,6.428a71.222,71.222,0,0,0-12.789,2.91,69.191,69.191,0,0,0-17.322,8.661l-2.5-3.451,1.286-.947c1.218-.88,1.556-1.827.812-2.842l-1.895-2.639c-.744-1.015-1.827-1.015-2.977-.135L164.2,97.782c-1.218.88-1.286,1.759-.609,2.774l1.895,2.639c.744,1.015,1.556,1.083,2.774.2l1.489-1.083,2.842,3.857a69.3,69.3,0,0,0,49.666,119.5,68.46,68.46,0,0,0,22.6-4.466,69.058,69.058,0,0,0,41.208-86.544Zm-10.759,49.125-5.278-2.842a1.311,1.311,0,0,0-1.827.677,1.377,1.377,0,0,0,.677,1.692l5.278,2.774a60.728,60.728,0,0,1-18.946,20.976,3.674,3.674,0,0,1-2.571,1.692,65.659,65.659,0,0,1-12.856,6.022,57.322,57.322,0,0,1-14.48,2.91v-.2a17.193,17.193,0,0,1-2.639.068v.271h-.609a61.43,61.43,0,0,1-27.472-5.684l2.5-5.007a1.308,1.308,0,0,0-.474-1.759,1.354,1.354,0,0,0-1.895.541l-2.571,5.143a61.722,61.722,0,0,1-21.653-18.676l4.6-3.113a1.4,1.4,0,0,0,.474-1.759,1.362,1.362,0,0,0-1.895-.474L169,190.212a61.744,61.744,0,0,1-9.676-26.863l5.549-.474a1.382,1.382,0,0,0,1.286-1.286,1.3,1.3,0,0,0-1.421-1.353l-5.616.474a61.16,61.16,0,0,1,4.8-28.149L169,134.93a1.592,1.592,0,0,0,.541.135,1.3,1.3,0,0,0,1.286-1.015,1.328,1.328,0,0,0-.812-1.489l-5.075-2.368a62.063,62.063,0,0,1,17.931-22.262l3.316,4.6a1.413,1.413,0,0,0,1.083.541,1.315,1.315,0,0,0,1.015-2.165l-3.316-4.6a60.624,60.624,0,0,1,15.766-7.984,58.081,58.081,0,0,1,16.646-3.113v5.819a1.491,1.491,0,0,0,1.556,1.286,1.548,1.548,0,0,0,1.556-1.286V95.143a66.034,66.034,0,0,1,27.4,6.5,3.837,3.837,0,0,1,.88.541l-2.977,5.143a1.408,1.408,0,0,0,.474,1.827,1.092,1.092,0,0,0,.609.2,1.4,1.4,0,0,0,1.15-.677l2.91-5.143a60.953,60.953,0,0,1,20.841,19.826l-5.075,3.045a1.312,1.312,0,0,0-.541,1.759,1.278,1.278,0,0,0,1.218.744,1.306,1.306,0,0,0,.677-.2l5.143-3.113a62.478,62.478,0,0,1,5.278,11.638,60,60,0,0,1,3.045,15.969l-6.022.2a1.252,1.252,0,0,0-1.218,1.692,1.323,1.323,0,0,0,1.286.88h0l6.09-.135A61.426,61.426,0,0,1,275.307,183.784Z" transform="translate(-151.018 -71.794)" fill="#f5832b"/>
        <path id="Path_6430" data-name="Path 6430" d="M238.964,124.1l-3.045,49.057L209.8,151.91l24.359,28.352a4.066,4.066,0,0,0,3.045,1.421h1.15a4.022,4.022,0,0,0,3.992-4.263Z" transform="translate(-170.025 -88.707)" fill="#f5832b"/>
      </g>
    </g>
    <g id="Group_114" data-name="Group 114" transform="translate(49.8 144.052)">
      <line id="Line_10" data-name="Line 10" x1="1.353" y1="0.406" transform="translate(73.89 98.668)" fill="#fff"/>
      <path id="Path_6431" data-name="Path 6431" d="M353.037,305.3h-8.323a5.16,5.16,0,0,1,.068,1.15,6.026,6.026,0,0,1-5.887,5.887,6.029,6.029,0,0,1-5.819-6.969H325.7v.474c1.353,7.037,6.97,12.518,14.886,12.518a12.927,12.927,0,0,0,9.135-3.992,12.673,12.673,0,0,0,2.5-4.466C352.292,309.5,353.375,305.3,353.037,305.3Z" transform="translate(-139.012 -219.556)" fill="none"/>
      <path id="Path_6432" data-name="Path 6432" d="M184.655,312.15a5.889,5.889,0,0,1-11.774.068,5.519,5.519,0,0,1,.068-1.218H165.1a14.607,14.607,0,0,0,14.819,12.18,12.832,12.832,0,0,0,9.135-3.586,12.385,12.385,0,0,0,2.5-4.4,40.794,40.794,0,0,0,.88-4.2H184.52C184.655,311,184.655,311.812,184.655,312.15Z" transform="translate(-87.082 -221.399)" fill="none"/>
      <path id="Path_6433" data-name="Path 6433" d="M145.744,255.768V255.7c-.271.406-.474.812-.744,1.218h0C145.271,256.512,145.474,256.174,145.744,255.768Z" transform="translate(-80.583 -203.518)" fill="#fff"/>
      <path id="Path_6434" data-name="Path 6434" d="M137.621,290.133c0-.744-.068-1.489-.068-2.233h-.2l-1.15,4.737A2.367,2.367,0,0,0,137.621,290.133Z" transform="translate(-77.737 -213.93)" fill="#fff"/>
      <path id="Path_6435" data-name="Path 6435" d="M141.383,265h-.135a32.735,32.735,0,0,0-.947,3.451h0C140.638,267.368,140.977,266.15,141.383,265Z" transform="translate(-79.063 -206.525)" fill="#fff"/>
      <path id="Path_6436" data-name="Path 6436" d="M135.1,299.435s.068,0,.271-.135h-.2Z" transform="translate(-77.382 -217.616)" fill="#fff"/>
      <path id="Path_6437" data-name="Path 6437" d="M159.2,324.2l.744.541h.474Z" transform="translate(-85.174 -225.668)" fill="#fff"/>
      <path id="Path_6438" data-name="Path 6438" d="M164.712,330.18c-.271-.271-.541-.609-.812-.88A5.507,5.507,0,0,0,164.712,330.18Z" transform="translate(-86.694 -227.317)" fill="#fff"/>
      <path id="Path_6439" data-name="Path 6439" d="M171.159,335.45a15.749,15.749,0,0,1-1.759-1.15A11.074,11.074,0,0,0,171.159,335.45Z" transform="translate(-88.473 -228.933)" fill="#fff"/>
      <g id="Group_112" data-name="Group 112" transform="translate(0.135)">
        <path id="Path_6440" data-name="Path 6440" d="M273.971,263.649c2.1-29.773-32.885-41.546-32.885-41.546a43.011,43.011,0,0,0-19.555-22.8c-.2-.2-.068-.677.2-.677l1.692-.2a4.377,4.377,0,0,0,4.06-3.18,22.675,22.675,0,0,0-1.015-14.21,4.285,4.285,0,0,0-4.2-2.436l-12.586.812a17.789,17.789,0,0,0-7.917,2.436l-11.435,6.7a2.978,2.978,0,0,0-1.556,2.91l.2,3.045c.068.677-6.09,1.421-6.7,1.692-2.842,1.286-3.451,5.752.338,6.225,1.895.271,3.18-.947,4.6-1.895a49.86,49.86,0,0,1,4.6-2.5c3.451-1.827,6.969-3.451,10.42-5.278a2.448,2.448,0,0,0,1.218-1.895,1.336,1.336,0,0,1,2.5-.338,2.579,2.579,0,0,1-.474,2.842L193.45,199.57a.7.7,0,0,0,0,1.218,40.229,40.229,0,0,1,12.721,11.841c4.8,7.037,8.8,16.375,6.225,24.9-2.436,8.255-11.165,14.345-20.232,14.345a21.226,21.226,0,0,1-21.315-21.111,18.82,18.82,0,0,1,4.331-11.977c2.03-2.639,0-5.549-3.519-5.549H133.228c-5.481,0-12.383,2.5-12.383,7.578v3.316c-3.383,2.368-4.737,5.075-6.428,7.849L50,234.621l62.32,2.5a33.794,33.794,0,0,0-1.083,3.451l-53.388,2.165,52.576,2.1c-.2,1.489-.338,2.91-.474,4.263l-43.509,1.759,43.373,1.759c0,.812,0,1.556.068,2.233.135,3.451-3.789,2.842-6.225,2.91l-9.811.406-19.691.812c11.3.474,22.6.88,33.968,1.353-1.624-.068-.541,12.789-.2,13.939.474,1.421.812,1.624,2.165.338v-.135c2.03-3.925,7.917-4.6,12.856-5.346v.541a7.454,7.454,0,0,0,.135,1.218,20.072,20.072,0,0,0,.541,2.774,21.19,21.19,0,0,0,1.624,4.06l-42.088,1.218,43.644,1.353c.338.406.677.812,1.015,1.15l-36.133,1.083,38.7,1.15a22.229,22.229,0,0,0,2.1,1.353l-34.1,1.015,39.584,1.218a22.3,22.3,0,0,0,16.849-2.165,21.908,21.908,0,0,0,6.361-5.684,21.634,21.634,0,0,0,3.992-10.217c.068-.744.068-1.15.068-1.15h-.068a24.519,24.519,0,0,0-.541-5.955c16.713,0,35.051-.338,51.628-.338,0,.406-.068.609-.068.947v.677c.068,2.707-.474,4.8.2,7.037.474,1.421.88,1.624,2.233.338v-.068c1.353-3.925,7.511-4.534,12.586-5.278v.744a7.455,7.455,0,0,0,.135,1.218,13.4,13.4,0,0,0,.541,2.774,20,20,0,0,0,4.534,8.052c.068.068.2.135.271.2,0,0,1.962,1.624,3.519,2.707a11.56,11.56,0,0,0,1.556.88c.947.271,2.3,2.1,7.714,2.436h.88a21.552,21.552,0,0,0,19.488-8.526,20.94,20.94,0,0,0,3.992-9.947c.068-.744.068-.947.068-.947V263.92C273.971,264.123,273.971,263.649,273.971,263.649ZM154.407,272.31a12.386,12.386,0,0,1-2.5,4.4,12.553,12.553,0,0,1-9.135,3.586,14.666,14.666,0,0,1-14.819-12.18H135.8a5.9,5.9,0,1,0,11.706,1.15,4.842,4.842,0,0,0-.068-1.15h7.917C155.287,268.792,154.475,272.107,154.407,272.31Zm108.6-3.451a12.672,12.672,0,0,1-2.5,4.466,12.927,12.927,0,0,1-9.135,3.992A14.972,14.972,0,0,1,236.485,264.8v-.474h7.375a6.029,6.029,0,0,0,5.819,6.969,6.026,6.026,0,0,0,5.887-5.887,5.16,5.16,0,0,0-.068-1.15h8.323C264.228,264.326,263.145,268.521,263.01,268.859Z" transform="translate(-50 -178.582)" fill="#2a575c"/>
      </g>
      <path id="Path_6441" data-name="Path 6441" d="M325.971,326.1a.934.934,0,0,0-.271-.2A.934.934,0,0,1,325.971,326.1Z" transform="translate(-139.012 -226.217)" fill="none"/>
      <path id="Path_6442" data-name="Path 6442" d="M184.655,312.15a5.889,5.889,0,0,1-11.774.068,5.519,5.519,0,0,1,.068-1.218H165.1a14.607,14.607,0,0,0,14.819,12.18,12.832,12.832,0,0,0,9.135-3.586,12.385,12.385,0,0,0,2.5-4.4,40.794,40.794,0,0,0,.88-4.2H184.52C184.655,311,184.655,311.812,184.655,312.15Z" transform="translate(-87.082 -221.399)" fill="none"/>
      <path id="Path_6443" data-name="Path 6443" d="M332.856,331.18c-.541-.271-1.015-.609-1.556-.88A8.038,8.038,0,0,0,332.856,331.18Z" transform="translate(-140.823 -227.64)" fill="none"/>
      <path id="Path_6444" data-name="Path 6444" d="M353.037,305.3h-8.323a5.16,5.16,0,0,1,.068,1.15,6.026,6.026,0,0,1-5.887,5.887,6.029,6.029,0,0,1-5.819-6.969H325.7v.474c1.353,7.037,6.97,12.518,14.886,12.518a12.927,12.927,0,0,0,9.135-3.992,12.673,12.673,0,0,0,2.5-4.466C352.292,309.5,353.375,305.3,353.037,305.3Z" transform="translate(-139.012 -219.556)" fill="none"/>
      <g id="Group_113" data-name="Group 113" transform="translate(0 53.332)">
        <path id="Path_6445" data-name="Path 6445" d="M155.7,336l-34.1,1.015,38.366,1.15-.609-.474C157.8,337.15,156.921,336.474,155.7,336Z" transform="translate(-73.016 -282.815)" fill="#f5832b"/>
        <path id="Path_6446" data-name="Path 6446" d="M49.8,260.039l62.184,2.5a31.122,31.122,0,0,1,2.233-5.143Z" transform="translate(-49.8 -257.4)" fill="#f5832b"/>
        <path id="Path_6447" data-name="Path 6447" d="M115,295.406l-9.811.406-19.691.812c11.232.474,22.4.88,33.63,1.353l.744-2.977C118.521,295.541,116.491,295.338,115,295.406Z" transform="translate(-61.344 -269.558)" fill="#f5832b"/>
        <path id="Path_6448" data-name="Path 6448" d="M140.479,325,99,326.286l43.644,1.353c.068.068.135.2.2.271-.474-.677-1.083-1.489-1.489-2.1Z" transform="translate(-65.709 -279.258)" fill="#f5832b"/>
        <path id="Path_6449" data-name="Path 6449" d="M111.8,331.65l38.7,1.15c.068.068.2.135.271.2-1.218-.947-2.368-2.1-2.91-2.5Z" transform="translate(-69.848 -281.037)" fill="#f5832b"/>
        <path id="Path_6450" data-name="Path 6450" d="M114.788,270.1,61.4,272.265l52.576,2.1c-.2,1.489-.338,2.91-.474,4.263l-43.509,1.759,43.17,1.759.271-1.15A74.3,74.3,0,0,1,114.788,270.1Z" transform="translate(-53.551 -261.507)" fill="#f5832b"/>
        <path id="Path_6451" data-name="Path 6451" d="M279.6,332.683l44.253,1.353c-5.413-.338-6.7-2.233-7.714-2.436Z" transform="translate(-124.106 -281.393)" fill="#f5832b"/>
        <path id="Path_6452" data-name="Path 6452" d="M256.9,321.953l45.742,1.421v-.068c0,.271.474.609.812.88a18.144,18.144,0,0,1-2.639-3.586Z" transform="translate(-116.766 -277.836)" fill="#f5832b"/>
        <path id="Path_6453" data-name="Path 6453" d="M269.7,327.383l41.208,1.286c.135.135.338.2.474.338-1.556-1.083-3.519-2.707-3.519-2.707Z" transform="translate(-120.904 -279.679)" fill="#f5832b"/>
      </g>
    </g>
  </g>
</svg>
